<?xml version="1.0" encoding="UTF-8" standalone="no"?>
<svg
   xmlns:dc="http://purl.org/dc/elements/1.1/"
   xmlns:cc="http://creativecommons.org/ns#"
   xmlns:rdf="http://www.w3.org/1999/02/22-rdf-syntax-ns#"
   xmlns:svg="http://www.w3.org/2000/svg"
   xmlns="http://www.w3.org/2000/svg"
   viewBox="0 0 415.01693 415.01693"
   height="415.01694"
   width="415.01694"
   xml:space="preserve"
   version="1.1"
   id="svg2"><metadata
     id="metadata8"><rdf:RDF><cc:Work
         rdf:about=""><dc:format>image/svg+xml</dc:format><dc:type
           rdf:resource="http://purl.org/dc/dcmitype/StillImage" /><dc:title></dc:title></cc:Work></rdf:RDF></metadata><defs
     id="defs6"><clipPath
       id="clipPath16"
       clipPathUnits="userSpaceOnUse"><path
         id="path18"
         d="M 0,792 1224,792 1224,0 0,0 0,792 Z" /></clipPath></defs><g
     transform="matrix(1.25,0,0,-1.25,-548.76129,709.27711)"
     id="g10"><g
       id="g12"><g
         clip-path="url(#clipPath16)"
         id="g14"><g
           style="fill:#000000"
           transform="translate(651.3433,271.9248)"
           id="g20"><path
             id="path22"
             style="fill:#000000;fill-opacity:1;fill-rule:nonzero;stroke:none"
             d="m 0,0 0,32.969 c 0,0.636 0.517,1.153 1.154,1.153 l 5.554,0 c 0.637,0 1.154,-0.517 1.154,-1.153 L 7.862,0 c 0,-0.638 -0.517,-1.153 -1.154,-1.153 l -5.554,0 C 0.517,-1.153 0,-0.638 0,0" /></g><g
           style="fill:#000000"
           transform="translate(659.7856,315.9336)"
           id="g24"><path
             id="path26"
             style="fill:#000000;fill-opacity:1;fill-rule:nonzero;stroke:none"
             d="m 0,0 c 0,-2.492 -2.02,-4.512 -4.512,-4.512 -2.491,0 -4.511,2.02 -4.511,4.512 0,2.491 2.02,4.511 4.511,4.511 C -2.02,4.511 0,2.491 0,0" /></g><g
           style="fill:#000000"
           transform="translate(511.9648,310.9531)"
           id="g28"><path
             id="path30"
             style="fill:#000000;fill-opacity:1;fill-rule:nonzero;stroke:none"
             d="m 0,0 c 0,3.085 2.408,4.968 6.471,4.968 l 15.937,0 c 0.51,0 0.923,0.413 0.923,0.923 l 0,5.678 c 0,0.51 -0.413,0.923 -0.923,0.923 l -15.937,0 C -1.731,12.492 -7.525,7.375 -7.525,0 c 0,-14.296 24.832,-16.554 24.832,-26.938 0,-3.311 -2.709,-5.719 -6.547,-5.719 l -5.041,0 c -3.559,0 -6.472,2.912 -6.472,6.471 l 0,1.857 c 0,0.637 -0.517,1.153 -1.153,1.153 l -5.218,0 c -0.637,0 -1.153,-0.516 -1.153,-1.153 l 0,-1.857 c 0,-7.73 6.266,-13.996 13.996,-13.996 l 5.041,0 c 7.977,0 14.072,5.719 14.072,13.244 C 24.832,-11.061 0,-7.976 0,0" /></g><g
           style="fill:#000000"
           transform="translate(637.8169,278.2959)"
           id="g32"><path
             id="path34"
             style="fill:#000000;fill-opacity:1;fill-rule:nonzero;stroke:none"
             d="m 0,0 -12.04,0 c -3.311,0 -6.02,2.709 -6.02,6.02 l 0,8.187 c 0,3.311 2.709,6.02 6.02,6.02 L 0,20.227 0,0 Z m 0,43.995 0,-16.244 -12.04,0 c -7.449,0 -13.544,-6.02 -13.544,-13.544 l 0,-8.187 c 0,-7.45 6.095,-13.544 13.544,-13.544 l 18.412,0 c 0.637,0 1.153,0.515 1.153,1.153 l 0,50.366 c 0,0.638 -0.516,1.154 -1.153,1.154 l -5.218,0 C 0.517,45.149 0,44.633 0,43.995" /></g><g
           style="fill:#000000"
           transform="translate(598.7065,304.8936)"
           id="g36"><path
             id="path38"
             style="fill:#000000;fill-opacity:1;fill-rule:nonzero;stroke:none"
             d="m 0,0 0,-26.598 -9.002,0 c -3.386,0.076 -6.02,2.559 -6.02,5.946 l 0,20.652 c 0,0.638 -0.517,1.153 -1.153,1.153 l -5.218,0 c -0.637,0 -1.153,-0.515 -1.153,-1.153 l 0,-20.652 c 0,-7.44 6.03,-13.47 13.469,-13.47 l 9.078,0 0,-5.302 c 0,-3.387 -3.294,-5.869 -6.68,-5.945 l -7.174,0 c -0.637,0 -1.154,-0.517 -1.154,-1.153 l 0,-5.218 c 0,-0.637 0.517,-1.154 1.154,-1.154 l 7.174,0 c 7.812,0 14.204,6.393 14.204,14.206 L 7.525,0 c 0,0.638 -0.516,1.153 -1.153,1.153 l -5.218,0 C 0.517,1.153 0,0.638 0,0" /></g><g
           style="fill:#000000"
           transform="translate(690.2896,284.291)"
           id="g40"><path
             id="path42"
             style="fill:#000000;fill-opacity:1;fill-rule:nonzero;stroke:none"
             d="m 0,0 c -0.013,-3.359 -2.62,-5.972 -5.977,-5.993 -0.014,0 -0.028,-0.002 -0.043,-0.002 l -6.019,0 -0.004,0 c -1.484,0.034 -2.824,0.531 -3.861,1.364 -1.325,1.094 -2.154,2.756 -2.154,4.655 l 0,8.212 c 0.013,3.36 2.62,5.972 5.976,5.993 0.015,0 0.029,0.002 0.043,0.002 l 6.019,0 0.005,0 C -4.53,14.197 -3.191,13.7 -2.154,12.867 -0.829,11.773 0,10.111 0,8.212 L 0,0 Z m -6.018,21.756 -6.021,0 -10e-4,0 c -0.033,0 -0.064,-0.004 -0.098,-0.005 -7.477,-0.053 -13.445,-5.973 -13.445,-13.465 l 0,-0.074 0,-8.188 0,-0.074 c 0,-7.526 6.019,-13.47 13.543,-13.47 l 6.02,0 10e-4,0 0.001,0 c 0.033,0 0.065,0.005 0.098,0.005 7.478,0.053 13.445,5.973 13.445,13.465 l 0,0.074 0,8.188 0,0.074 c 0,7.527 -6.019,13.47 -13.543,13.47" /></g><g
           style="fill:#000000"
           transform="translate(547.668,323.4453)"
           id="g44"><path
             id="path46"
             style="fill:#000000;fill-opacity:1;fill-rule:nonzero;stroke:none"
             d="m 0,0 -5.218,0 c -0.636,0 -1.153,-0.517 -1.153,-1.154 l 0,-50.367 c 0,-0.637 0.517,-1.153 1.153,-1.153 l 5.218,0 c 0.637,0 1.153,0.516 1.153,1.153 l 0,50.367 C 1.153,-0.517 0.637,0 0,0" /></g><g
           style="fill:#000000"
           transform="translate(561.2871,288.4092)"
           id="g48"><path
             id="path50"
             style="fill:#000000;fill-opacity:1;fill-rule:nonzero;stroke:none"
             d="m 0,0 10.252,16.222 c 0.389,0.615 -0.053,1.416 -0.78,1.416 l -6.363,0 c -0.546,0 -1.056,-0.277 -1.354,-0.735 L -7.704,2.356 C -7.875,2.094 -7.965,1.788 -7.965,1.476 l 0,-2.958 c 0,-0.313 0.09,-0.619 0.261,-0.881 l 9.459,-14.54 c 0.298,-0.458 0.808,-0.735 1.354,-0.735 l 6.309,0 c 0.751,0 1.207,0.827 0.805,1.462 L 0,0 Z" /></g><g
           style="fill:#000000"
           transform="translate(509.2944,367.7949)"
           id="g52"><path
             id="path54"
             style="fill:#000000;fill-opacity:1;fill-rule:nonzero;stroke:none"
             d="m 0,0 c 0,-10.635 7.06,-17.971 17.213,-20.262 1.336,-0.301 5.056,-1.591 28.387,-1.591 l 142.921,0 0,123.782 C 7.276,47.635 0,10.811 0,0" /></g><g
           style="fill:#000000"
           transform="translate(503.6875,442.9717)"
           id="g56"><path
             id="path58"
             style="fill:#000000;fill-opacity:1;fill-rule:nonzero;stroke:none"
             d="m 0,0 c 178.226,34.682 216.625,55.755 216.625,68.335 0,10.666 -22.497,13.682 -22.497,13.682 l 0,15.011 L 0,97.028 0,0 Z" /></g></g></g></g></svg>