<svg id="Logo" xmlns="http://www.w3.org/2000/svg" viewBox="0 0 2104.51 1280.94"><title>Uber_Logo_Black_RGB</title><path d="M595.67,803.49c59.13,0,104.85-45.73,104.85-113.4V426.72h64V853.48H701.13V813.85c-28.65,29.87-68.27,46.94-112.78,46.94-91.45,0-161.56-66.45-161.56-167v-267h64V690.09c0,68.89,45.11,113.4,104.86,113.4"/><path d="M812.09,426.73h61.57V582.19A153.73,153.73,0,0,1,984,535.85c91.45,0,163.38,72.55,163.38,162.78,0,89.62-71.93,162.16-163.38,162.16a155.13,155.13,0,0,1-111-46.33v39h-61ZM979.74,806.54c58.53,0,106.69-48.17,106.69-107.91,0-60.36-48.16-107.91-106.69-107.91-59.14,0-107.3,47.55-107.3,107.91,0,59.74,47.55,107.91,107.3,107.91"/><path d="M1331.51,536.46c89.61,0,155.46,68.89,155.46,161.56v20.12H1234c8.54,50.6,50.6,88.4,103,88.4,36,0,66.46-14.64,89.62-45.73l44.51,32.92c-31.1,41.46-77.43,66.45-134.13,66.45-93.27,0-165.21-69.5-165.21-162.16,0-87.79,68.89-161.56,159.73-161.56m-96.33,132.91h189.6c-10.36-47.56-48.77-79.26-94.49-79.26s-84.13,31.7-95.11,79.26"/><path d="M1652.18,597.43c-40.24,0-69.5,31.09-69.5,79.25v176.8H1521.1V542.56h61V581c15.24-25,40.24-40.85,74.38-40.85h21.33v57.31Z"/></svg>